# xmcd CD database file
#
# Track frame offsets:
#	150
#	22585
#	37205
#	49053
#	63330
#	79900
#	104674
#	126173
#	139339
#	152723
#	178064
#	194644
#	212958
#
# Disc length: 3059 seconds
#
# Revision: 0
# Processed by: cddbd v1.5.1PL0 Copyright (c) Steve Scherf et al.
# Submitted via: CDex 1.51
#
DISCID=c20bf10d
DTITLE=Sambajazz Trio - Agora Sim!
DYEAR=2005
DGENRE=Jazz
TTITLE0=Maracangalha
TTITLE1=Agora Sim!
TTITLE2=Sweet Georgia Brown
TTITLE3=Sabor Antigo
TTITLE4=Quero-Quero
TTITLE5=Noturno
TTITLE6=O Trenzinho de Caipira
TTITLE7=Deus brasileiro
TTITLE8=Praza Pio XI
TTITLE9=Cancao do Sal
TTITLE10=The Dolphin
TTITLE11=O Morro Nao tem Vez
TTITLE12=Cem Anos Para Amar
EXTD=YEAR: 2005
EXTT0=
EXTT1=
EXTT2=
EXTT3=
EXTT4=
EXTT5=
EXTT6=
EXTT7=
EXTT8=
EXTT9=
EXTT10=
EXTT11=
EXTT12=
PLAYORDER=
